<svg width="17" height="17" viewBox="0 0 17 17" fill="none" xmlns="http://www.w3.org/2000/svg">
<g filter="url(#filter0_d)">
<path d="M12.8462 6.5H7.65385C7.01659 6.5 6.5 7.01659 6.5 7.65385V12.8462C6.5 13.4834 7.01659 14 7.65385 14H12.8462C13.4834 14 14 13.4834 14 12.8462V7.65385C14 7.01659 13.4834 6.5 12.8462 6.5Z" stroke="white" stroke-width="2" stroke-linecap="round" stroke-linejoin="round"/>
<path d="M3.73077 9.5H3.15385C2.84783 9.5 2.55434 9.37843 2.33795 9.16205C2.12157 8.94566 2 8.65217 2 8.34615V3.15385C2 2.84783 2.12157 2.55434 2.33795 2.33795C2.55434 2.12157 2.84783 2 3.15385 2H8.34615C8.65217 2 8.94566 2.12157 9.16205 2.33795C9.37843 2.55434 9.5 2.84783 9.5 3.15385V3.73077" stroke="white" stroke-width="2" stroke-linecap="round" stroke-linejoin="round"/>
</g>
<defs>
<filter id="filter0_d" x="0.5" y="0.5" width="16" height="16" filterUnits="userSpaceOnUse" color-interpolation-filters="sRGB">
<feFlood flood-opacity="0" result="BackgroundImageFix"/>
<feColorMatrix in="SourceAlpha" type="matrix" values="0 0 0 0 0 0 0 0 0 0 0 0 0 0 0 0 0 0 127 0"/>
<feOffset dx="0.5" dy="0.5"/>
<feGaussianBlur stdDeviation="0.5"/>
<feColorMatrix type="matrix" values="0 0 0 0 0 0 0 0 0 0 0 0 0 0 0 0 0 0 0.4 0"/>
<feBlend mode="normal" in2="BackgroundImageFix" result="effect1_dropShadow"/>
<feBlend mode="normal" in="SourceGraphic" in2="effect1_dropShadow" result="shape"/>
</filter>
</defs>
</svg>
