<svg width="147" height="147" viewBox="0 0 147 147" fill="none" xmlns="http://www.w3.org/2000/svg">
<g clip-path="url(#clip0)">
<path d="M7.84801 149.845L147.797 9.89899L167.712 29.814L27.765 169.762L7.84801 149.845Z" fill="url(#paint0_linear)"/>
<path d="M51.0888 121.033C50.5728 120.515 50.2008 120.175 49.9738 120.007L53.6338 116.347L54.9058 117.618C54.7158 117.763 54.4238 118.032 54.0268 118.429L52.6468 119.809L54.4248 121.588L55.5768 120.436C55.9258 120.086 56.1738 119.817 56.3178 119.627L57.5678 120.877C57.3918 121.006 57.1578 121.219 56.8618 121.515L55.6058 122.77L57.9938 125.158C58.4418 125.606 58.7968 125.93 59.0548 126.131L57.5748 127.61C57.3848 127.36 57.0428 126.987 56.5488 126.494L51.0888 121.033Z" fill="white"/>
<path d="M63.9428 121.395C63.2138 122.125 62.4118 122.419 61.5368 122.275C60.7768 122.138 60.0148 121.687 59.2468 120.921C57.5308 119.205 57.3758 117.643 58.7838 116.234C60.1758 114.842 61.7278 115.005 63.4448 116.721C64.2048 117.48 64.6518 118.241 64.7898 118.999C64.9478 119.875 64.6648 120.673 63.9428 121.395ZM59.8868 117.363C59.5378 117.714 59.4738 118.11 59.6968 118.558C59.8178 118.816 60.1018 119.169 60.5508 119.618C60.9988 120.065 61.3518 120.35 61.6118 120.472C62.0588 120.692 62.4588 120.629 62.8048 120.28C63.1538 119.931 63.2208 119.539 63.0088 119.097C62.8868 118.839 62.5978 118.482 62.1428 118.026C61.6958 117.58 61.3418 117.295 61.0828 117.172C60.6328 116.952 60.2368 117.014 59.8868 117.363Z" fill="white"/>
<path d="M66.7198 118.463C66.5898 118.289 66.3438 118.019 65.9788 117.652L62.4348 114.108C62.0798 113.753 61.8218 113.515 61.6628 113.4L62.9118 112.152L63.2528 112.498C63.2148 112.006 63.3548 111.6 63.6728 111.281C63.8088 111.144 63.9858 111.027 64.2038 110.927L65.4938 112.217C65.1588 112.276 64.9108 112.384 64.7528 112.544C64.5408 112.756 64.4198 113.097 64.3908 113.565L67.1618 116.336C67.5498 116.724 67.8418 116.994 68.0378 117.147L66.7198 118.463Z" fill="white"/>
<path d="M70.0028 115.18C69.8728 115.006 69.6268 114.736 69.2618 114.371L63.1758 108.285C62.8198 107.928 62.5608 107.69 62.4028 107.577L63.6958 106.284C63.8178 106.451 64.0468 106.701 64.3808 107.036L67.5828 110.237L67.3338 108.436C67.3038 108.178 67.2538 107.961 67.1858 107.789L68.6578 106.315L69.0898 109.803L73.9118 111.272L72.5778 112.606C72.4318 112.523 72.1508 112.418 71.7318 112.289L68.6768 111.332L70.4208 113.076C70.8088 113.464 71.1008 113.732 71.2968 113.886L70.0028 115.18Z" fill="white"/>
<path d="M75.3748 100.557C75.4428 99.866 75.7398 99.256 76.2648 98.732C76.8598 98.138 77.5758 97.957 78.4108 98.183C79.0948 98.379 79.7778 98.82 80.4628 99.503L82.0238 101.065C82.5428 101.584 82.9058 101.919 83.1178 102.069L81.7588 103.428C81.5518 103.148 81.2138 102.772 80.7418 102.3L79.2018 100.76C78.3658 99.924 77.7198 99.733 77.2638 100.187C76.9538 100.499 76.7848 100.79 76.7538 101.061C77.1418 101.313 77.5338 101.636 77.9288 102.032L79.4918 103.595C80.0088 104.113 80.3728 104.448 80.5848 104.6L79.2148 105.97C79.0078 105.69 78.6698 105.314 78.1978 104.843L76.6688 103.292C76.1898 102.813 75.8168 102.526 75.5518 102.436C75.2858 102.344 75.0358 102.415 74.8018 102.65C74.5748 102.879 74.4588 103.2 74.4518 103.617L77.2918 106.458C77.4208 106.587 77.5728 106.729 77.7478 106.881C77.9218 107.031 78.0188 107.121 78.0438 107.144L76.7178 108.47C76.6128 108.318 76.3828 108.068 76.0338 107.718L72.4758 104.163C72.0668 103.752 71.7888 103.497 71.6448 103.396L72.9158 102.147L73.2718 102.518C73.3408 101.918 73.5248 101.47 73.8218 101.174C74.2708 100.725 74.7898 100.519 75.3748 100.557Z" fill="white"/>
<path d="M85.5618 95.334L83.0338 97.862C83.8238 98.531 84.5498 98.536 85.2108 97.875C85.6438 97.44 85.9128 96.952 86.0188 96.402L87.2378 97.623C86.9568 98.254 86.6358 98.748 86.2808 99.103C85.5268 99.856 84.6888 100.184 83.7698 100.085C82.8958 100.002 82.0568 99.559 81.2518 98.753C80.5678 98.068 80.1558 97.329 80.0118 96.532C79.8618 95.648 80.1038 94.889 80.7428 94.253C81.3668 93.629 82.0558 93.36 82.8168 93.453C83.5318 93.544 84.2208 93.924 84.8888 94.592C85.1468 94.852 85.3728 95.099 85.5618 95.334ZM81.8288 95.267C81.3878 95.708 81.4368 96.231 81.9828 96.836L83.3848 95.433C82.7968 94.874 82.2778 94.819 81.8288 95.267Z" fill="white"/>
<path d="M92.7448 92.593C92.0148 93.322 91.2128 93.615 90.3378 93.473C89.5788 93.336 88.8158 92.885 88.0478 92.119C86.3318 90.4 86.1768 88.841 87.5848 87.431C88.9768 86.039 90.5308 86.202 92.2468 87.917C93.0058 88.677 93.4538 89.437 93.5908 90.194C93.7498 91.072 93.4668 91.872 92.7448 92.593ZM88.6898 88.561C88.3398 88.912 88.2778 89.307 88.4988 89.755C88.6208 90.014 88.9058 90.365 89.3528 90.815C89.8008 91.264 90.1558 91.548 90.4138 91.669C90.8608 91.89 91.2598 91.826 91.6078 91.478C91.9578 91.128 92.0228 90.735 91.8108 90.294C91.6888 90.035 91.4008 89.679 90.9448 89.224C90.4978 88.776 90.1428 88.492 89.8848 88.37C89.4348 88.149 89.0388 88.212 88.6898 88.561Z" fill="white"/>
<path d="M92.7818 82.194C93.3878 81.57 94.1308 81.361 95.0038 81.566C95.7408 81.742 96.4468 82.168 97.1238 82.841L98.6858 84.403C99.2038 84.921 99.5668 85.256 99.7788 85.408L98.4098 86.777C98.2578 86.582 97.9148 86.21 97.3818 85.663L95.8548 84.11C95.0028 83.245 94.2998 83.089 93.7498 83.639C93.4998 83.889 93.3678 84.272 93.3538 84.788L96.1608 87.593C96.2908 87.723 96.4398 87.864 96.6178 88.016C96.7918 88.168 96.8888 88.256 96.9128 88.279L95.5878 89.605C95.4808 89.456 95.2528 89.206 94.9008 88.854L91.4008 85.355C90.9628 84.917 90.6698 84.644 90.5248 84.544L91.7868 83.283L92.1948 83.694C92.2248 83.052 92.4228 82.55 92.7818 82.194Z" fill="white"/>
<path d="M106.445 77.461C106.527 77.741 106.507 78.088 106.382 78.498C106.23 78.999 105.942 79.463 105.516 79.888C103.63 81.774 101.37 81.397 98.7328 78.758C97.4778 77.504 96.7878 76.279 96.6588 75.087C96.5298 73.893 96.9798 72.777 98.0148 71.744C98.6088 71.149 99.3108 70.828 100.124 70.773L101.423 72.074C100.515 72.138 99.7908 72.44 99.2508 72.98C98.1318 74.099 98.4598 75.545 100.234 77.32C102.032 79.12 103.381 79.564 104.289 78.661C105.025 77.924 104.938 77.098 104.026 76.185C103.942 76.086 103.637 75.797 103.116 75.318L104.508 73.926C104.806 74.28 105.153 74.658 105.547 75.053L106.868 76.375C107.081 76.587 107.284 76.775 107.481 76.942C107.677 77.11 107.81 77.228 107.878 77.296C107.84 77.362 107.76 77.442 107.639 77.535L106.445 77.461Z" fill="white"/>
<path d="M108.842 76.341C108.704 76.174 108.454 75.907 108.089 75.544L104.544 71.999C104.188 71.642 103.933 71.4 103.781 71.278L105.061 69.999C105.191 70.156 105.422 70.402 105.756 70.737L109.255 74.235C109.643 74.625 109.932 74.896 110.12 75.056L108.842 76.341ZM103.55 69.747C103.33 69.966 103.06 70.067 102.737 70.059C102.416 70.046 102.138 69.926 101.912 69.698C101.676 69.464 101.553 69.182 101.539 68.86C101.526 68.538 101.631 68.265 101.852 68.047C102.063 67.835 102.331 67.734 102.657 67.746C102.977 67.76 103.259 67.883 103.495 68.118C103.724 68.347 103.843 68.623 103.854 68.943C103.862 69.266 103.761 69.533 103.55 69.747Z" fill="white"/>
<path d="M107.496 67.567L108.478 66.586L109.582 67.69C109.545 67.727 109.471 67.794 109.36 67.888C109.251 67.982 109.151 68.075 109.059 68.164L108.576 68.648L110.696 70.768C111.206 71.277 111.627 71.366 111.961 71.033C112.196 70.798 112.343 70.519 112.401 70.199L113.542 71.34C113.412 71.774 113.148 72.188 112.754 72.583C112.198 73.14 111.616 73.325 111.008 73.145C110.553 73.008 110.005 72.623 109.367 71.983L107.328 69.944L107.339 69.933L107.318 69.911L107.134 70.072C107.034 70.174 106.915 70.313 106.778 70.499L105.674 69.394L106.237 68.831L105.792 68.385C105.578 68.171 105.396 68.011 105.243 67.903L106.569 66.577C106.691 66.746 106.842 66.922 107.027 67.103L107.496 67.567Z" fill="white"/>
<path d="M114.667 61.213L115.044 60.837L116.292 62.085L115.916 62.462L118.52 65.066C118.876 65.423 119.159 65.674 119.363 65.819L117.871 67.31C117.703 67.084 117.43 66.781 117.051 66.401L114.513 63.863L112.436 65.94L114.962 68.467C115.372 68.876 115.679 69.155 115.883 69.299L114.404 70.778C114.252 70.566 114.001 70.288 113.65 69.936L107.643 63.93C107.293 63.58 107.012 63.329 106.801 63.176L108.281 61.696C108.44 61.918 108.692 62.196 109.034 62.54L111.185 64.69L113.261 62.613L111.268 60.622C110.805 60.159 110.471 59.853 110.267 59.71L111.759 58.218C111.898 58.415 112.113 58.661 112.409 58.957L114.667 61.213Z" fill="white"/>
<path d="M122.298 62.974C121.699 63.574 120.989 63.749 120.17 63.506C119.51 63.3 118.83 62.848 118.131 62.15L116.569 60.588C116.051 60.069 115.688 59.734 115.475 59.584L116.845 58.214C116.991 58.402 117.333 58.776 117.872 59.33L119.4 60.881C119.835 61.315 120.195 61.577 120.482 61.669C120.832 61.792 121.157 61.702 121.458 61.399C121.67 61.187 121.781 60.827 121.794 60.31L118.988 57.505C118.858 57.375 118.703 57.234 118.52 57.082C118.337 56.929 118.241 56.846 118.223 56.83L119.549 55.504C119.663 55.648 119.897 55.895 120.245 56.244L123.731 59.729C124.178 60.178 124.47 60.457 124.608 60.562L123.359 61.811L122.952 61.399C122.913 62.056 122.692 62.581 122.298 62.974Z" fill="white"/>
<path d="M127.923 57.327C127.512 57.737 127.021 57.932 126.451 57.913L126.86 58.321L125.657 59.525C125.55 59.376 125.321 59.126 124.969 58.774L118.942 52.747C118.495 52.3 118.199 52.023 118.053 51.926L119.346 50.633C119.467 50.785 119.745 51.077 120.178 51.51L122.168 53.486C122.299 52.919 122.531 52.465 122.865 52.132C123.467 51.528 124.204 51.322 125.078 51.514C125.83 51.689 126.538 52.106 127.198 52.767C127.874 53.443 128.308 54.184 128.507 54.99C128.728 55.936 128.534 56.716 127.923 57.327ZM123.818 53.565C123.566 53.817 123.427 54.208 123.406 54.732L125.382 56.711C125.861 56.701 126.221 56.58 126.457 56.344C126.756 56.045 126.814 55.656 126.642 55.177C126.506 54.796 126.258 54.427 125.901 54.069C125.038 53.207 124.344 53.04 123.818 53.565Z" fill="white"/>
<g opacity="0.5">
<path opacity="0.5" d="M155.681 4.92799L1.30601 159.303" stroke="white" stroke-dasharray="3 1.5"/>
<path opacity="0.5" d="M173.806 20.803L19.431 175.178" stroke="white" stroke-dasharray="3 1.5"/>
</g>
</g>
<defs>
<linearGradient id="paint0_linear" x1="97.7358" y1="99.7888" x2="77.8188" y2="79.8718" gradientUnits="userSpaceOnUse">
<stop stop-color="#EF6600"/>
<stop offset="1" stop-color="#DF5600"/>
</linearGradient>
<clipPath id="clip0">
<rect width="147" height="147" fill="white" transform="translate(147 147) rotate(180)"/>
</clipPath>
</defs>
</svg>
