<svg width="11" height="11" viewBox="0 0 11 11" fill="none" xmlns="http://www.w3.org/2000/svg">
<g filter="url(#filter0_d)">
<path fill-rule="evenodd" clip-rule="evenodd" d="M5.07996 4.4285V5.8H7.34846C7.25696 6.3885 6.66346 7.525 5.07996 7.525C3.71496 7.525 2.59996 6.395 2.59996 5C2.59996 3.605 3.71496 2.475 5.07996 2.475C5.85696 2.475 6.37696 2.805 6.67496 3.0915L7.75996 2.0455C7.06296 1.395 6.15996 1 5.07996 1C2.86846 1 1.07996 2.7885 1.07996 5C1.07996 7.2115 2.86846 9 5.07996 9C7.38846 9 8.91996 7.377 8.91996 5.0915C8.91996 4.8285 8.89146 4.6285 8.85696 4.4285H5.07996Z" fill="#4285F4"/>
</g>
<defs>
<filter id="filter0_d" x="0.5" y="0.5" width="10" height="10" filterUnits="userSpaceOnUse" color-interpolation-filters="sRGB">
<feFlood flood-opacity="0" result="BackgroundImageFix"/>
<feColorMatrix in="SourceAlpha" type="matrix" values="0 0 0 0 0 0 0 0 0 0 0 0 0 0 0 0 0 0 127 0"/>
<feOffset dx="0.5" dy="0.5"/>
<feGaussianBlur stdDeviation="0.5"/>
<feColorMatrix type="matrix" values="0 0 0 0 0 0 0 0 0 0 0 0 0 0 0 0 0 0 0.4 0"/>
<feBlend mode="normal" in2="BackgroundImageFix" result="effect1_dropShadow"/>
<feBlend mode="normal" in="SourceGraphic" in2="effect1_dropShadow" result="shape"/>
</filter>
</defs>
</svg>
