<svg width="54" height="54" viewBox="0 0 54 54" fill="none" xmlns="http://www.w3.org/2000/svg">
<g filter="url(#filter0_d)">
<rect x="5" y="5" width="40" height="40" rx="2" fill="white"/>
<g filter="url(#filter1_d)">
<path d="M12.3666 18.36C12.18 18.0667 12.0066 17.6667 11.8466 17.16C11.6866 16.6533 11.6066 16.12 11.6066 15.56C11.6066 14.52 11.8333 13.7733 12.2866 13.32C12.7666 12.8667 13.38 12.64 14.1266 12.64H31.5666C31.7533 12.9333 31.9266 13.3333 32.0866 13.84C32.2466 14.3467 32.3266 14.88 32.3266 15.44C32.3266 16.48 32.0866 17.2267 31.6066 17.68C31.1533 18.1333 30.5533 18.36 29.8066 18.36H25.3666V36.84C25.0733 36.92 24.6066 37 23.9666 37.08C23.3533 37.16 22.74 37.2 22.1266 37.2C21.5133 37.2 20.9666 37.1467 20.4866 37.04C20.0333 36.96 19.6466 36.8 19.3266 36.56C19.0066 36.32 18.7666 35.9866 18.6066 35.56C18.4466 35.1333 18.3666 34.5733 18.3666 33.88V18.36H12.3666Z" fill="black"/>
</g>
<path fill-rule="evenodd" clip-rule="evenodd" d="M37 41L37 9.00003L39 9.00003L39 41L37 41Z" fill="black"/>
</g>
<defs>
<filter id="filter0_d" x="0" y="0" width="54" height="54" filterUnits="userSpaceOnUse" color-interpolation-filters="sRGB">
<feFlood flood-opacity="0" result="BackgroundImageFix"/>
<feColorMatrix in="SourceAlpha" type="matrix" values="0 0 0 0 0 0 0 0 0 0 0 0 0 0 0 0 0 0 127 0"/>
<feOffset dx="2" dy="2"/>
<feGaussianBlur stdDeviation="3.5"/>
<feColorMatrix type="matrix" values="0 0 0 0 0 0 0 0 0 0 0 0 0 0 0 0 0 0 0.25 0"/>
<feBlend mode="normal" in2="BackgroundImageFix" result="effect1_dropShadow"/>
<feBlend mode="normal" in="SourceGraphic" in2="effect1_dropShadow" result="shape"/>
</filter>
<filter id="filter1_d" x="9.60665" y="10.64" width="24.72" height="28.56" filterUnits="userSpaceOnUse" color-interpolation-filters="sRGB">
<feFlood flood-opacity="0" result="BackgroundImageFix"/>
<feColorMatrix in="SourceAlpha" type="matrix" values="0 0 0 0 0 0 0 0 0 0 0 0 0 0 0 0 0 0 127 0"/>
<feOffset/>
<feGaussianBlur stdDeviation="1"/>
<feColorMatrix type="matrix" values="0 0 0 0 0 0 0 0 0 0 0 0 0 0 0 0 0 0 0.3 0"/>
<feBlend mode="normal" in2="BackgroundImageFix" result="effect1_dropShadow"/>
<feBlend mode="normal" in="SourceGraphic" in2="effect1_dropShadow" result="shape"/>
</filter>
</defs>
</svg>
