<svg width="20" height="18" viewBox="0 0 20 18" fill="none" xmlns="http://www.w3.org/2000/svg">
<g filter="url(#filter0_d123)">
<path d="M18 8.11843C18 7.02465 17.0459 6.13479 15.8731 6.13479C15.2187 6.13479 14.6167 6.40752 14.2154 6.8752C13.0892 6.39737 11.8051 6.10294 10.4468 6.00971L11.6139 2.56997L14.2206 3.09671C14.4202 3.82113 15.1261 4.35819 15.9642 4.35819C16.957 4.35819 17.7646 3.60497 17.7646 2.67912C17.7646 1.75327 16.957 1 15.9642 1C15.2471 1 14.6274 1.39338 14.3381 1.96065L11.3302 1.3528C11.0239 1.29091 10.7168 1.45669 10.6222 1.7357L9.18169 5.98109C7.59173 6.01725 6.0832 6.32415 4.78469 6.87514C4.38325 6.40752 3.78127 6.13479 3.12691 6.13479C1.95413 6.13479 1 7.02465 1 8.11843C1 8.64965 1.22381 9.14839 1.62118 9.51882C1.38418 9.9932 1.26416 10.4866 1.26416 10.9888C1.26416 12.3517 2.13899 13.6237 3.72762 14.5706C5.274 15.4924 7.32411 16 9.5 16C11.676 16 13.726 15.4924 15.2724 14.5706C16.861 13.6237 17.7358 12.3517 17.7358 10.9888C17.7358 10.4867 17.6158 9.99325 17.3788 9.51882C17.7762 9.14834 18 8.64965 18 8.11843ZM1.93396 8.79837C1.79954 8.5949 1.72923 8.36265 1.72923 8.11843C1.72923 7.39967 2.35618 6.8149 3.12691 6.8149C3.45774 6.8149 3.76851 6.9198 4.01712 7.1129C3.12856 7.58342 2.4291 8.14944 1.93396 8.79837ZM5.13472 9.94695C5.13472 9.16568 5.81625 8.53007 6.65395 8.53007C7.49165 8.53007 8.17317 9.16568 8.17317 9.94695C8.17317 10.7282 7.49165 11.3638 6.65395 11.3638C5.81625 11.3638 5.13472 10.7282 5.13472 9.94695ZM12.6165 13.1805C12.0243 13.7834 10.8302 14.1578 9.5 14.1578C8.16989 14.1578 6.97572 13.7834 6.38352 13.1805C6.27384 13.0689 6.21744 12.9241 6.22449 12.7729C6.23154 12.6216 6.30142 12.482 6.42108 12.3797C6.53344 12.2837 6.67916 12.2309 6.83151 12.2309C7.00148 12.2309 7.16477 12.2979 7.27956 12.4147C7.63221 12.7736 8.5452 13.0243 9.5 13.0243C10.4548 13.0243 11.3679 12.7736 11.7204 12.4147C11.8352 12.2978 11.9985 12.2309 12.1685 12.2309C12.321 12.2309 12.4667 12.2837 12.579 12.3797C12.6988 12.482 12.7685 12.6216 12.7756 12.7729C12.7827 12.9241 12.7262 13.0689 12.6165 13.1805ZM12.3461 11.3638C11.5084 11.3638 10.8268 10.7282 10.8268 9.94695C10.8268 9.16568 11.5084 8.53007 12.3461 8.53007C13.1838 8.53007 13.8653 9.16568 13.8653 9.94695C13.8653 10.7282 13.1838 11.3638 12.3461 11.3638ZM17.066 8.79837C16.571 8.14944 15.8715 7.58347 14.9829 7.1129C15.2315 6.91975 15.5423 6.8149 15.8731 6.8149C16.6438 6.8149 17.2708 7.39967 17.2708 8.11843C17.2708 8.36265 17.2005 8.5949 17.066 8.79837Z" fill="white"/>
</g>
<defs>
<filter id="filter0_d123" x="0.5" y="0.5" width="19" height="17" filterUnits="userSpaceOnUse" color-interpolation-filters="sRGB">
<feFlood flood-opacity="0" result="BackgroundImageFix"/>
<feColorMatrix in="SourceAlpha" type="matrix" values="0 0 0 0 0 0 0 0 0 0 0 0 0 0 0 0 0 0 127 0"/>
<feOffset dx="0.5" dy="0.5"/>
<feGaussianBlur stdDeviation="0.5"/>
<feColorMatrix type="matrix" values="0 0 0 0 0 0 0 0 0 0 0 0 0 0 0 0 0 0 0.4 0"/>
<feBlend mode="normal" in2="BackgroundImageFix" result="effect1_dropShadow"/>
<feBlend mode="normal" in="SourceGraphic" in2="effect1_dropShadow" result="shape"/>
</filter>
</defs>
</svg>
