<svg width="23" height="21" viewBox="0 0 23 21" fill="none" xmlns="http://www.w3.org/2000/svg">
<g filter="url(#filter0_d)">
<path d="M19 4.28697C18.3854 4.55951 17.725 4.7437 17.0319 4.82654C17.7394 4.40244 18.2827 3.73091 18.5385 2.93078C17.8765 3.32342 17.1431 3.6086 16.3626 3.76231C15.7375 3.09634 14.847 2.68018 13.8614 2.68018C11.9689 2.68018 10.4347 4.2144 10.4347 6.10674C10.4347 6.3753 10.465 6.63684 10.5234 6.88763C7.67553 6.74473 5.15064 5.38053 3.46057 3.30741C3.16561 3.81351 2.99663 4.40213 2.99663 5.03011C2.99663 6.21891 3.60163 7.26775 4.52108 7.88222C3.95933 7.86444 3.431 7.7103 2.96895 7.45365C2.96871 7.46795 2.96871 7.4823 2.96871 7.49672C2.96871 9.15698 4.14988 10.5419 5.71745 10.8567C5.42989 10.935 5.12718 10.9769 4.81463 10.9769C4.59384 10.9769 4.37916 10.9554 4.16998 10.9154C4.60599 12.2768 5.87147 13.2675 7.37093 13.2951C6.19819 14.2142 4.72066 14.762 3.11527 14.762C2.83871 14.762 2.56593 14.7458 2.29785 14.7141C3.81429 15.6864 5.61549 16.2536 7.5506 16.2536C13.8534 16.2536 17.3 11.0322 17.3 6.50409C17.3 6.35551 17.2967 6.20773 17.2901 6.0608C17.9596 5.57768 18.5406 4.97414 19 4.28697Z" fill="white"/>
</g>
<defs>
<filter id="filter0_d" x="0.297852" y="0.680176" width="22.7021" height="19.5734" filterUnits="userSpaceOnUse" color-interpolation-filters="sRGB">
<feFlood flood-opacity="0" result="BackgroundImageFix"/>
<feColorMatrix in="SourceAlpha" type="matrix" values="0 0 0 0 0 0 0 0 0 0 0 0 0 0 0 0 0 0 127 0"/>
<feOffset dx="1" dy="1"/>
<feGaussianBlur stdDeviation="1.5"/>
<feColorMatrix type="matrix" values="0 0 0 0 0 0 0 0 0 0 0 0 0 0 0 0 0 0 0.25 0"/>
<feBlend mode="normal" in2="BackgroundImageFix" result="effect1_dropShadow"/>
<feBlend mode="normal" in="SourceGraphic" in2="effect1_dropShadow" result="shape"/>
</filter>
</defs>
</svg>
