<svg width="17" height="14" viewBox="0 0 17 14" fill="none" xmlns="http://www.w3.org/2000/svg">
<path d="M16.7021 1.6068C16.0876 1.87933 15.4272 2.06353 14.734 2.14637C15.4415 1.72226 15.9848 1.05073 16.2407 0.250602C15.5786 0.643245 14.8453 0.928425 14.0648 1.08213C13.4397 0.416163 12.5491 0 11.5636 0C9.67109 0 8.13681 1.53422 8.13681 3.42657C8.13681 3.69513 8.16717 3.95667 8.22558 4.20745C5.37768 4.06456 2.85278 2.70036 1.16272 0.627238C0.86776 1.13333 0.698778 1.72196 0.698778 2.34993C0.698778 3.53873 1.30378 4.58757 2.22322 5.20204C1.66148 5.18426 1.13315 5.03013 0.671103 4.77348C0.670859 4.78777 0.670859 4.80213 0.670859 4.81655C0.670859 6.4768 1.85202 7.86177 3.4196 8.17652C3.13204 8.25484 2.82932 8.29669 2.51677 8.29669C2.29599 8.29669 2.08131 8.27525 1.87212 8.23523C2.30814 9.59662 3.57362 10.5873 5.07307 10.615C3.90034 11.534 2.42281 12.0818 0.81742 12.0818C0.540853 12.0818 0.268075 12.0656 0 12.034C1.51644 13.0062 3.31764 13.5734 5.25275 13.5734C11.5556 13.5734 15.0022 8.35204 15.0022 3.82391C15.0022 3.67534 14.9989 3.52755 14.9923 3.38062C15.6617 2.8975 16.2427 2.29397 16.7021 1.6068Z" fill="white"/>
</svg>
