<svg width="72" height="72" viewBox="0 0 72 72" fill="none" xmlns="http://www.w3.org/2000/svg">
<path opacity="0.3" d="M2 0C0.89543 0 0 0.895431 0 2V4C0 5.10457 0.895431 6 2 6H4C5.10457 6 6 5.10457 6 4V2C6 0.89543 5.10457 0 4 0H2ZM14 0C12.8954 0 12 0.895431 12 2V4C12 5.10457 12.8954 6 14 6H16C17.1046 6 18 5.10457 18 4V2C18 0.89543 17.1046 0 16 0H14ZM26 0C24.8954 0 24 0.895431 24 2V4C24 5.10457 24.8954 6 26 6H28C29.1046 6 30 5.10457 30 4V2C30 0.89543 29.1046 0 28 0H26ZM38 0C36.8954 0 36 0.895431 36 2V4C36 5.10457 36.8954 6 38 6H40C41.1046 6 42 5.10457 42 4V2C42 0.89543 41.1046 0 40 0H38ZM50 0C48.8954 0 48 0.895431 48 2V4C48 5.10457 48.8954 6 50 6H52C53.1046 6 54 5.10457 54 4V2C54 0.89543 53.1046 0 52 0H50ZM62 0C60.8954 0 60 0.895431 60 2V4C60 5.10457 60.8954 6 62 6H64C65.1046 6 66 5.10457 66 4V2C66 0.89543 65.1046 0 64 0H62ZM2 12C0.89543 12 0 12.8954 0 14V16C0 17.1046 0.895431 18 2 18H4C5.10457 18 6 17.1046 6 16V14C6 12.8954 5.10457 12 4 12H2ZM62 12C60.8954 12 60 12.8954 60 14V16C60 17.1046 60.8954 18 62 18H64C65.1046 18 66 17.1046 66 16V14C66 12.8954 65.1046 12 64 12H62ZM2 24C0.89543 24 0 24.8954 0 26V28C0 29.1046 0.895431 30 2 30H4C5.10457 30 6 29.1046 6 28V26C6 24.8954 5.10457 24 4 24H2ZM62 24C60.8954 24 60 24.8954 60 26V28C60 29.1046 60.8954 30 62 30H64C65.1046 30 66 29.1046 66 28V26C66 24.8954 65.1046 24 64 24H62ZM32.4848 27C31.8639 27 31.2781 27.2884 30.8996 27.7806L30.5625 28.2188L27.5998 32.195C27.2224 32.7015 26.6278 33 25.9961 33H15H14C12.8954 33 12 33.8954 12 35V36V69V70C12 71.1046 12.8954 72 14 72H15H69H70C71.1046 72 72 71.1046 72 70V69V36V35C72 33.8954 71.1046 33 70 33H69H58.0039C57.3722 33 56.7776 32.7015 56.4002 32.195L53.4375 28.2188L53.1004 27.7806C52.7219 27.2884 52.1361 27 51.5152 27H51H33H32.4848ZM33.9002 33.805C34.2776 33.2985 34.8722 33 35.5039 33H48.4961C49.1278 33 49.7224 33.2985 50.0998 33.805L53.0625 37.7812L53.3996 38.2194C53.7781 38.7116 54.3639 39 54.9848 39H55.5H64C65.1046 39 66 39.8954 66 41V64C66 65.1046 65.1046 66 64 66H20C18.8954 66 18 65.1046 18 64V41C18 39.8954 18.8954 39 20 39H28.5H29.0152C29.6361 39 30.2219 38.7116 30.6004 38.2194L30.9375 37.7812L33.9002 33.805ZM2 36C0.89543 36 0 36.8954 0 38V40C0 41.1046 0.895431 42 2 42H4C5.10457 42 6 41.1046 6 40V38C6 36.8954 5.10457 36 4 36H2ZM42 39C35.4081 39 30 44.4081 30 51C30 57.5919 35.4081 63 42 63C48.5919 63 54 57.5919 54 51C54 44.4081 48.5919 39 42 39ZM42 45C45.3492 45 48 47.6508 48 51C48 54.3492 45.3492 57 42 57C38.6508 57 36 54.3492 36 51C36 47.6508 38.6508 45 42 45ZM2 48C0.89543 48 0 48.8954 0 50V52C0 53.1046 0.895431 54 2 54H4C5.10457 54 6 53.1046 6 52V50C6 48.8954 5.10457 48 4 48H2Z" fill="black"/>
</svg>
