<svg width="14" height="14" viewBox="0 0 14 14" fill="none" xmlns="http://www.w3.org/2000/svg">
<path d="M11.9609 2.03556C11.3154 1.38801 10.5471 0.874614 9.70063 0.525178C8.85414 0.175742 7.94635 -0.00276299 7.02999 3.23287e-05C3.18631 3.23287e-05 0.059316 3.11237 0.059316 6.9361C0.0555898 8.15383 0.376331 9.35076 0.988832 10.4048L0 14L3.69573 13.0343C4.71799 13.5885 5.86321 13.8794 7.0272 13.8805H7.02999C10.8709 13.8805 13.9972 10.7682 14 6.94166C14.0029 6.03028 13.8242 5.12737 13.4742 4.28523C13.1242 3.44308 12.6098 2.67843 11.9609 2.03556ZM10.4396 9.41694C10.2952 9.82127 9.58406 10.2117 9.26515 10.2388C8.94345 10.2687 8.64408 10.3826 7.17444 9.80807C5.40194 9.11335 4.2854 7.30569 4.19748 7.18898C4.11025 7.07505 3.48848 6.24972 3.48848 5.398C3.48848 4.54349 3.93858 4.12527 4.09699 3.95159C4.25749 3.77791 4.44591 3.73414 4.56314 3.73414C4.67759 3.73414 4.79482 3.73414 4.89531 3.7397C5.02092 3.74248 5.157 3.75012 5.28819 4.03843C5.44311 4.38023 5.78156 5.23752 5.82553 5.32436C5.86879 5.41119 5.8988 5.51471 5.83879 5.62864C5.78156 5.74536 5.75156 5.81622 5.66712 5.91903C5.57989 6.01907 5.48428 6.14412 5.40543 6.21985C5.3182 6.30669 5.22818 6.40186 5.32867 6.57554C5.42985 6.74922 5.77877 7.31611 6.29657 7.77463C6.9616 8.36653 7.52336 8.54854 7.69782 8.63538C7.87228 8.72222 7.97276 8.70833 8.07395 8.59162C8.17723 8.47768 8.5101 8.08725 8.62733 7.91357C8.74178 7.73989 8.85901 7.76976 9.01673 7.82673C9.17723 7.8837 10.0335 8.304 10.2079 8.39084C10.3824 8.47768 10.4968 8.52145 10.5408 8.59231C10.5841 8.66526 10.5841 9.01262 10.4396 9.41694Z" fill="white"/>
</svg>
